<svg width="79" height="20" viewBox="0 0 79 20" fill="none" xmlns="http://www.w3.org/2000/svg">
<path d="M0.76 0.0499995V16H3.268V9.818H5.886C9.736 9.818 12.574 8.938 12.574 4.956C12.574 0.775999 9.582 0.0499995 5.886 0.0499995H0.76ZM5.974 2.118C8.152 2.118 9.978 2.382 9.978 4.978C9.978 7.442 8.24 7.706 6.04 7.706H3.268V2.118H5.974ZM16.7714 0.0499995H14.4834V16H16.7714V0.0499995ZM27.2465 11.226C27.2465 13.58 25.7505 14.526 23.8805 14.526C22.4725 14.526 21.6365 13.844 21.6365 12.766C21.6365 11.248 23.5725 10.72 27.2465 10.368V11.226ZM23.3745 16.286C25.3105 16.286 26.6305 15.648 27.3345 14.438C27.4005 15.208 27.4445 15.538 27.5325 16H29.7325C29.5125 14.944 29.4025 13.514 29.4025 11.732C29.4025 11.226 29.4465 9.18 29.4465 8.894C29.4685 5.352 27.7305 3.878 24.6725 3.878C21.9665 3.878 19.8765 5.374 19.7005 7.904H22.0105C22.0985 6.43 23.0005 5.638 24.5845 5.638C26.0365 5.638 27.1365 6.342 27.1365 8.432V8.674C22.5605 9.136 19.1505 9.928 19.1505 12.81C19.1505 14.966 20.9765 16.286 23.3745 16.286ZM32.671 19.85C35.355 19.85 36.015 19.058 37.005 16.264L41.185 4.164H38.809L36.015 12.986L33.155 4.164H30.625L34.893 15.978L34.805 16.242C34.233 17.914 33.705 18.024 32.473 18.024H31.571V19.85H32.671ZM49.5196 10.126C49.5196 7.134 51.1256 5.88 52.8416 5.88C54.6016 5.88 56.1856 7.2 56.1856 10.126C56.1856 13.008 54.6016 14.35 52.8416 14.35C51.1256 14.35 49.5196 13.03 49.5196 10.126ZM52.8416 3.944C50.0476 3.944 47.0996 5.836 47.0996 10.126C47.0996 14.394 50.0476 16.286 52.8416 16.286C55.6576 16.286 58.6056 14.394 58.6056 10.126C58.6056 5.836 55.6576 3.944 52.8416 3.944ZM68.1936 16H70.5036V4.164H68.2156V10.588C68.2156 12.942 67.2916 14.35 65.3556 14.35C63.2876 14.35 63.0016 12.766 63.0016 11.072V4.164H60.7136V11.688C60.7136 14.57 61.7916 16.286 64.5856 16.286C66.3676 16.286 67.5116 15.538 68.1936 14.328V16ZM74.0274 4.164H72.2234V5.902H74.0274V12.964C74.0274 15.406 74.5554 16 76.9534 16H78.6254V14.174H77.6574C76.5134 14.174 76.3154 13.866 76.3154 12.656V5.902H78.6474V4.164H76.3154V1.128H74.0274V4.164Z" fill="white"/>
</svg>
