<svg width="165" height="10" viewBox="0 0 165 10" fill="none" xmlns="http://www.w3.org/2000/svg">
<path d="M1 5C6.43333 -0.333333 11.8667 -0.333333 17.3 5C22.7333 10.3333 28.1667 10.3333 33.6 5C39.0333 -0.333333 44.4667 -0.333333 49.9 5C55.3333 10.3333 60.7667 10.3333 66.2 5C71.6333 -0.333333 77.0667 -0.333333 82.5 5C87.9333 10.3333 93.3667 10.3333 98.8 5C104.233 -0.333333 109.667 -0.333333 115.1 5C120.533 10.3333 125.967 10.3333 131.4 5C136.833 -0.333333 142.267 -0.333333 147.7 5C153.133 10.3333 158.567 10.3333 164 5" stroke="black" stroke-width="2"/>
</svg>
