<svg width="138" height="138" viewBox="0 0 138 138" fill="none" xmlns="http://www.w3.org/2000/svg">
<circle cx="69" cy="69" r="69" fill="#4CFF89"/>
<path d="M101.746 58.8238C98.0508 57.4501 97.5469 58.4804 94.1875 56.2482C92.0039 54.7029 90.6601 54.5312 87.3007 53.8443C86.7968 53.8443 86.7968 53.5009 86.7968 51.4405C86.7968 50.0668 86.6288 49.5517 85.621 44.5723C85.285 43.027 84.9491 40.2797 83.4374 40.4514C82.7655 40.4514 82.7655 41.1382 82.4295 41.9967C82.2616 41.6533 82.0936 41.3099 82.0936 40.9665C81.5897 39.2495 80.9178 37.7041 80.5819 35.9871C79.91 33.9266 78.7342 32.0379 77.8943 29.9774C77.5584 29.4623 76.8865 29.2906 76.7185 30.4925C76.3826 32.3813 77.2224 33.2398 75.3748 31.351C73.6951 29.4623 72.1833 26.1999 70.8395 24.8263C70.1677 23.9677 69.1598 24.998 69.1598 25.6848C69.1598 27.5735 69.8317 27.4018 69.9997 28.7755C70.1677 29.2906 68.6559 27.2301 66.3043 26.5433C65.2965 26.3716 64.4567 26.1999 63.6168 26.0282C62.7769 26.0282 62.609 26.715 63.2809 27.2301C63.2809 27.2301 65.9684 29.2906 65.9684 29.4623L66.1364 29.634C66.3043 29.9774 66.6403 30.1491 66.8082 30.6642C63.7848 30.4925 61.4332 29.634 59.0816 30.4925C58.5777 30.6642 58.4097 31.351 58.9136 31.6945C59.2496 31.8662 59.5855 32.2096 59.9214 32.553C60.2574 32.7247 60.7613 33.0681 61.0972 33.4115C55.2183 34.0983 52.6987 34.27 52.5307 35.1285C52.5307 35.8154 53.0346 35.6437 54.5464 36.8456C55.5542 37.7041 55.3862 37.189 56.562 38.5626C56.0581 38.5626 55.3862 38.2192 51.6909 38.2192C50.851 38.2192 50.5151 38.906 51.3549 39.5929C51.8588 40.108 52.1948 40.4514 52.6987 40.9665C51.187 41.6533 47.3236 41.1382 47.8275 42.6835C47.9955 43.027 48.1635 43.027 50.1791 44.9157C48.4994 45.2591 45.4759 46.1176 43.9642 47.3196C42.6204 48.6932 42.1165 48.6932 40.9407 49.38C40.2688 49.8951 40.4368 50.582 41.2767 50.582C44.6361 50.582 43.6283 50.582 44.4681 50.4102C44.972 50.4102 40.7728 53.1575 40.7728 55.9048C40.7728 56.5916 40.9407 56.7633 41.6126 56.7633C45.14 56.7633 43.2923 56.4199 41.2767 59.1672C39.429 61.7427 37.5813 61.571 36.2375 63.8032C36.0696 63.9749 35.9016 64.1466 36.0696 64.3183C36.0696 64.6617 36.4055 64.8334 36.5735 64.8334C37.2454 64.6617 37.7493 65.1768 38.4212 65.3485C39.429 65.8637 36.0696 67.2373 36.7415 68.6109C37.0774 69.4694 38.9251 68.6109 39.597 69.2977C39.7649 69.4694 40.4368 69.2977 41.1087 69.4694C41.6126 69.4694 41.9486 69.8129 41.7806 70.1563C41.2767 70.8431 41.2767 71.7016 41.1087 72.5601C41.1087 73.0752 41.2767 73.2469 41.7806 73.2469C42.1165 73.2469 42.6204 73.2469 42.9564 73.2469C43.2923 73.0752 43.2923 73.2469 43.4603 74.964C43.4603 76.1659 44.1322 75.8225 45.14 75.8225C45.8119 75.8225 46.4838 75.3074 47.1557 75.9942C47.4916 76.3376 47.6596 76.5093 47.4916 77.1961C47.3236 77.883 46.1478 79.2566 47.9955 80.1151C49.3393 80.6302 49.1713 81.1454 50.1791 85.438C50.1791 85.438 50.1791 89.0438 50.1791 90.074C50.1791 90.7608 51.019 90.9325 51.187 90.2457C51.3549 89.3872 51.8588 89.9023 51.019 91.9627C50.3471 93.8515 49.8432 95.9119 49.3393 97.8007C49.3393 98.1441 49.3393 98.3158 49.6752 98.4875C50.0112 98.8309 50.3471 98.3158 51.019 97.629C51.187 98.8309 50.683 99.6894 51.3549 99.6894C51.6909 99.8611 51.6909 100.033 51.5229 100.205C50.851 102.093 49.3393 103.295 50.0112 103.81C50.3471 104.154 50.851 103.982 51.187 103.81C54.0425 101.922 53.7065 101.922 53.5385 102.78C51.6909 107.416 51.3549 107.244 51.187 108.446C51.187 110.507 54.5464 107.416 55.0503 107.416C54.8823 108.961 50.683 116.001 57.4019 112.567C58.0738 112.396 57.7378 111.537 57.0659 111.709C56.394 111.88 56.2261 112.396 54.7143 112.567C54.2104 112.567 54.8823 110.679 55.7222 108.446C57.4019 103.639 53.3706 107.416 52.3627 107.76C55.0503 101.75 53.0346 106.043 54.5464 102.437C54.7143 102.093 54.7143 101.75 54.5464 101.406C54.3784 100.033 51.8588 102.437 51.6909 102.265C51.3549 102.093 51.8588 102.78 53.5385 97.4573C53.7065 96.9422 53.2026 96.4271 52.6987 97.1139C52.0268 97.8007 52.0268 98.6592 52.0268 96.2554C52.0268 95.7402 51.5229 95.2251 51.019 96.0836C51.019 96.0836 51.019 96.2553 50.851 96.4271C51.019 94.3666 52.0268 92.4779 52.3627 90.4174C52.3627 90.9325 52.5307 91.4476 52.5307 91.791C52.8667 92.4779 52.3627 92.993 53.2026 94.5383C53.3706 95.0534 53.8745 94.8817 54.0425 94.5383C54.2104 94.1949 54.3784 93.5081 54.5464 93.1647C54.8823 93.8515 54.5464 95.3968 55.3862 96.4271C55.8901 97.1139 56.562 99.0026 57.5698 98.8309C59.4175 98.8309 59.5855 98.8309 59.7535 99.1743H59.9214C60.4254 98.8309 60.9293 99.346 61.2652 99.5177C61.9371 99.8611 63.1129 99.6894 63.7848 99.6894C64.7926 99.8611 64.9606 99.0026 65.8004 98.1441C66.6403 97.2856 67.3122 98.1441 68.6559 99.346C69.3278 100.033 69.6637 99.5177 70.1677 98.8309C70.8395 99.1743 70.3356 101.406 74.199 100.891C74.7029 100.891 75.0388 100.548 75.2068 100.033C76.2146 97.2856 75.3748 96.9422 76.5506 97.4573C78.5662 98.3158 80.5819 97.629 81.2537 96.9422C83.1014 94.71 84.6132 94.0232 84.6132 92.3061C84.4452 89.9023 84.7811 89.9023 86.4608 89.2155C86.4608 89.9023 86.4608 90.4174 86.4608 91.1042C86.2929 93.6798 88.3085 97.8007 87.6366 97.9724C86.7968 98.3158 86.1249 96.7705 85.453 97.1139C84.1092 97.629 86.7968 103.982 87.3007 105.012C87.4687 105.184 87.6366 105.356 87.4687 105.356C87.3007 105.527 87.1327 105.527 86.4608 104.841C85.9569 104.325 85.453 104.841 85.453 105.356C85.285 106.729 86.1249 107.76 86.9647 108.961C87.4687 109.648 87.8046 110.163 88.1405 109.82C88.6445 109.477 88.3085 109.133 87.9726 108.618C87.9726 108.446 86.2929 106.558 86.6288 106.386C86.6288 106.386 86.9647 106.558 87.4687 106.558C88.1405 106.558 88.6445 106.558 88.6445 105.699C88.6445 105.012 86.1249 99.8611 86.1249 98.8309C86.1249 98.3158 86.4608 99.5177 87.9726 99.0026C89.9882 98.4875 87.3007 93.8515 87.4687 92.3061C87.3007 91.791 87.6366 88.8721 87.4687 87.3267C86.4608 84.4077 85.621 84.0643 85.9569 83.7209C85.1171 81.1454 89.3163 83.2058 88.3085 80.4585C86.7968 77.883 86.9647 78.2264 87.3007 78.0547C87.8046 77.5396 88.6445 77.883 88.8124 76.8527C88.8124 72.5601 87.3007 71.3582 87.4687 69.9846C87.6366 69.8129 87.4687 69.6412 87.6366 69.6412C88.3085 69.4694 88.6445 68.9543 89.1484 68.4392C89.8203 67.7524 89.4843 67.9241 95.0274 66.0354C98.7227 64.6617 99.3946 62.9447 100.738 61.571C101.578 60.7125 102.586 59.1672 101.578 58.8238H101.746ZM51.6909 88.8721C52.0268 88.0135 51.8588 88.1852 52.1948 88.8721C52.0268 88.8721 51.8588 88.8721 51.6909 88.8721ZM89.8202 66.7222C88.1405 67.2373 86.7968 70.328 86.6288 70.4997C86.2929 71.0148 87.3007 71.7016 87.6366 75.4791C87.8046 76.8527 87.6366 76.681 87.4687 76.8527C86.4608 77.1962 85.621 77.883 86.1249 78.7415C87.6366 81.1454 87.6366 80.9736 86.7968 81.1454C85.285 81.4888 84.9491 81.8322 84.7811 82.519C84.6132 84.4077 85.285 84.5794 86.4608 87.6701C86.7968 88.8721 83.2694 87.4984 83.4374 92.4779C83.6053 93.5081 81.9256 94.71 81.5897 94.8817C81.2537 95.2251 80.7498 96.7705 78.7342 96.7705C76.0466 96.7705 75.2068 94.8817 74.8708 96.9422C74.3669 99.5177 74.3669 99.8611 73.863 99.8611C73.1911 99.8611 71.8474 100.033 71.5114 99.1743C71.1755 98.1441 70.1677 96.7705 69.4958 97.9724C68.9919 98.8309 68.9919 97.9724 67.4801 97.1139C66.6403 96.5988 65.8004 96.5988 65.1285 97.4573C64.2887 98.1441 64.2887 98.8309 62.9449 98.6592C59.9214 98.4875 62.1051 97.629 57.9058 97.8007C56.73 97.9724 55.8901 95.3968 55.7222 94.1949C55.7222 94.0232 56.0581 93.1647 55.2183 92.6496C54.8823 92.4779 55.3862 91.2759 54.5464 91.2759C53.8745 91.1042 54.0425 91.9627 53.7065 92.3061C53.2026 89.2155 53.3706 88.8721 52.6987 87.155C52.3627 86.6399 51.6909 86.4682 51.5229 86.9833C51.3549 87.3267 51.187 87.4984 51.187 87.6701C51.019 87.155 51.019 86.6399 51.3549 86.1248C51.3549 86.1248 51.3549 85.9531 51.3549 85.7814C50.1791 82.0039 50.5151 80.1151 48.3314 79.2566C47.3236 78.7415 48.6674 78.0547 48.6674 76.5093C48.6674 75.3074 47.6596 75.3074 47.4916 74.7923C47.1557 73.9338 46.4838 74.6206 44.6361 74.7923C43.7962 74.964 45.308 71.7016 43.1244 72.045C42.1165 72.2167 42.1165 72.2167 42.2845 71.3582C42.6204 70.6714 43.9642 69.2977 41.1087 68.0958C40.6048 67.9241 40.2688 67.9241 37.9173 68.0958C36.5735 68.0958 41.2767 65.5202 39.0931 64.6617C38.5891 64.49 38.0852 64.1466 37.5813 63.9749C36.9094 63.8032 38.2532 62.9447 38.7571 62.6013C42.1165 60.3691 40.9407 60.5408 41.4446 60.5408C43.9642 60.5408 43.1244 60.3691 42.9564 61.2276C43.4603 61.3993 43.7962 61.0559 44.1322 60.8842C44.4681 60.8842 44.4681 60.3691 44.3001 60.0257C44.1322 59.5106 43.4603 59.6823 42.4525 59.6823C44.8041 56.4199 45.6439 57.2784 45.4759 56.2482C45.308 55.5614 44.6361 55.7331 41.7806 55.7331C41.9486 53.5009 46.6517 50.0668 46.9877 50.0668C47.6596 49.7234 47.3236 49.0366 46.8197 49.0366C45.8119 49.0366 44.4681 49.5517 42.9564 49.5517C45.9799 47.4913 43.7962 48.0064 48.8354 46.2893C50.3471 45.9459 52.5307 45.7742 51.5229 44.744C50.1791 43.5421 49.3393 42.8552 49.1713 42.6835C52.1948 42.1684 54.8823 41.9967 53.7065 40.4514C53.3706 39.9363 52.8667 39.7646 52.3627 39.2495C56.562 39.4212 56.2261 39.7646 57.2339 39.7646C57.9058 39.7646 58.2417 39.4212 57.7378 38.5626C57.0659 37.3607 55.7222 36.5022 54.2104 35.3002C59.0816 34.27 63.9527 34.7851 62.441 33.2398C61.2652 32.0379 60.9293 32.2096 60.9293 31.6945C60.9293 31.6945 60.9293 31.6945 60.7613 31.6945C60.4254 31.6945 60.2574 31.5228 60.0894 31.351C60.5933 30.6642 65.1285 31.6945 67.6481 31.6945C69.6637 31.6945 66.4723 28.4321 65.2965 27.5735C66.6403 27.2301 68.8239 29.1189 69.8317 30.1491C70.8395 31.1793 70.8395 31.1793 71.0075 31.0076C71.8474 30.3208 71.5114 29.634 70.1677 26.715C69.9997 26.3716 70.1677 26.0282 70.1677 25.6848C70.6716 25.8565 77.5584 38.2192 77.5584 31.8662C79.91 35.9871 80.7498 41.825 82.2616 43.7138C82.7655 44.2289 83.2694 43.8855 83.2694 43.3704C83.2694 42.8552 83.4374 42.1684 83.6053 41.4816C84.4452 42.8552 85.789 49.7234 85.789 52.6424C85.789 53.1575 85.285 53.6726 85.453 54.1877C85.453 54.3594 85.285 54.3594 85.285 54.3594C84.6132 54.3594 84.2772 54.5312 82.5975 53.1575C81.9256 52.4707 80.9178 51.9556 80.9178 52.8141C80.9178 54.1877 81.2537 54.3594 80.7498 54.3594C80.0779 54.3594 79.574 54.3594 78.9021 54.1877C77.7263 53.8443 78.0623 56.2482 76.5506 57.1067C75.2068 50.2385 73.5271 57.2784 70.5036 59.6823C70.8395 57.6218 70.8395 58.1369 70.8395 57.2784C71.0075 56.4199 69.8317 56.5916 69.1598 57.1067C67.3122 58.9955 68.488 58.6521 64.9606 61.0559C64.6246 61.3993 64.7926 60.8842 64.7926 60.7125C64.6246 60.3691 64.6246 60.0257 64.2887 60.1974C63.7848 60.1974 64.2887 61.0559 63.9527 61.7427C63.7848 62.0862 64.1207 62.4296 64.6246 62.2579C66.3043 61.9144 68.9919 58.6521 69.8317 57.7935C69.9997 58.4804 67.4801 66.5505 74.5349 55.9048C75.0388 55.218 75.0388 55.0463 75.3748 56.5916C75.5427 57.2784 75.5427 58.6521 76.3826 58.3087C77.3904 57.7935 78.5662 56.2482 78.7342 55.5614C78.7342 55.218 78.7342 55.3897 81.4217 55.3897C82.0936 55.3897 81.9256 54.5312 81.9256 53.6726C82.5975 54.1877 84.7811 56.4199 86.2929 54.8746C86.4608 54.5312 90.8281 55.7331 91.6679 55.9048C93.6836 56.5916 94.8594 58.4804 98.2188 58.9955C98.7227 58.9955 99.2266 59.1672 99.7305 59.3389C98.7227 59.3389 97.7149 59.3389 96.5391 59.3389C96.0352 59.3389 95.6992 58.6521 95.1953 59.1672C94.6914 59.6823 95.5313 60.1974 95.5313 60.7125C93.3476 59.5106 92.6758 59.1672 92.0039 59.1672C90.1562 59.3389 87.9726 57.2784 87.4687 58.3087C87.3007 59.3389 88.8124 58.9955 90.1562 60.0257C90.3242 60.0257 90.3242 60.0257 90.3242 60.0257C91.332 60.0257 91.5 61.2276 92.1718 61.7427C90.996 61.9144 89.9882 61.571 88.8124 61.7427C88.9804 62.0862 88.9804 62.2579 88.9804 62.6013C88.9804 62.9447 89.3163 62.9447 89.4843 62.9447C89.9882 62.6013 90.3242 62.773 90.8281 62.773C94.5234 63.1164 93.8516 62.4296 92.3398 60.3691C93.8516 60.7125 95.1953 61.9144 95.8672 62.0862C96.875 62.2579 97.3789 61.7427 96.875 60.8842C96.5391 60.3691 96.2031 60.5408 100.402 60.5408C97.8829 62.9447 99.3946 63.8032 89.8202 66.7222ZM79.91 101.235C79.4061 101.063 79.2381 101.578 79.2381 101.922C78.5662 104.669 79.2381 104.841 77.5584 102.952C77.2224 102.608 77.0545 102.437 76.7185 102.78C76.0466 103.295 77.3904 103.81 78.3982 105.527C78.7342 105.871 79.2381 105.699 79.4061 105.184C79.574 105.012 79.574 104.841 80.2459 101.75C80.2459 101.578 80.2459 101.235 79.91 101.235ZM63.7848 103.639C63.2809 104.154 62.7769 104.841 61.6011 105.699C61.6011 103.982 61.7691 103.295 61.2652 103.124C60.5933 103.124 60.5933 103.639 60.7613 105.871C60.7613 106.558 61.6011 107.073 62.1051 106.558C62.9449 105.871 63.6168 105.012 64.2887 104.325C64.6246 103.982 64.1207 103.295 63.7848 103.639ZM73.5271 106.043C73.0232 105.699 72.8552 106.386 72.3513 107.76C71.3435 107.073 71.8474 106.214 71.1755 106.214C69.6637 106.214 72.1833 110.163 73.0232 108.275C73.863 106.558 74.031 106.214 73.5271 106.043ZM86.7968 62.773C84.1092 62.0862 74.5349 62.4296 72.3513 62.9447C71.3435 63.1164 65.6324 64.8334 64.7926 64.49C57.0659 62.6013 61.6011 63.2881 53.7065 62.4296C50.5151 62.0862 46.4838 61.9144 43.4603 62.4296C39.597 63.1164 44.972 69.2977 47.8275 71.8733C52.1948 75.9942 56.73 75.6508 59.5855 73.2469C61.7691 71.5299 61.9371 70.6714 63.1129 69.126C64.4567 67.409 65.9684 67.5807 66.8082 69.126C69.1598 73.0752 72.3513 75.9942 76.7185 74.964C82.2616 73.7621 90.996 64.1466 86.7968 62.773ZM67.8161 89.0438C67.1442 88.8721 66.4723 88.1852 65.6324 88.0135C65.4645 88.0135 65.2965 87.8418 65.2965 87.6701C64.4567 86.6399 64.2887 86.2965 64.2887 83.2058C64.2887 83.0341 63.9527 82.8624 64.1207 82.1756C64.2887 81.8322 64.2887 81.4888 64.2887 81.1454C65.1285 81.1454 67.3122 79.4283 68.32 79.4283C68.8239 79.4283 69.3278 79.0849 69.9997 79.0849C69.9997 79.0849 69.9997 79.0849 70.1677 79.0849C72.6872 76.5093 69.4958 75.6508 69.9997 77.3679C70.1677 78.5698 68.8239 78.2264 67.6481 77.5396C67.3122 77.3679 66.6403 77.5396 66.3043 77.883C66.3043 78.0547 66.1364 78.0547 66.1364 78.0547C65.4645 78.3981 65.4645 78.9132 64.9606 79.6C64.4567 80.6302 62.7769 79.7717 62.7769 79.2566C62.9449 78.5698 62.441 78.2264 62.1051 77.883C61.7691 77.5396 61.0972 77.7113 60.5933 77.3679V77.5396C60.2574 77.883 59.5855 77.7113 59.0816 77.883C58.9136 78.0547 58.5777 78.0547 58.4097 77.883C58.0738 77.883 58.2417 77.5396 58.2417 77.3679C57.9058 76.8527 57.4019 76.8527 57.2339 77.3679C57.0659 77.883 57.4019 78.7415 57.9058 78.9132C58.5777 79.0849 59.4175 79.0849 60.0894 79.2566C62.609 79.7717 62.273 80.4585 62.9449 80.8019C63.6168 81.1454 63.1129 81.8322 63.2809 82.6907C63.9527 87.6701 63.1129 86.8116 60.7613 88.7004C60.5933 88.8721 60.4254 88.8721 60.4254 88.8721C59.4175 88.7003 58.5777 88.8721 57.9058 88.3569C57.7378 88.0135 57.5698 88.1852 57.4019 88.1852C56.898 88.3569 57.2339 89.3872 57.7378 89.3872C58.9136 89.5589 61.2652 91.2759 63.7848 90.9325C64.9606 90.7608 66.1364 91.1042 67.3122 90.7608C67.984 90.5891 68.6559 90.7608 69.1598 90.4174C69.3278 90.4174 71.6794 89.9023 71.3435 89.0438C71.1755 88.1852 70.1677 89.5589 67.8161 89.0438ZM83.2694 84.5794C83.2694 84.236 83.1014 83.8926 82.7655 83.8926C82.2616 83.8926 82.2616 84.236 82.2616 84.5794C82.2616 87.8418 82.4295 87.8418 81.9256 87.3267C80.0779 85.9531 80.0779 85.7814 79.742 86.1248C79.2381 86.6399 80.0779 86.8116 79.742 86.9833C79.4061 87.155 79.4061 86.9833 79.4061 91.9627C78.7342 91.2759 78.0623 90.5891 77.3904 90.074C77.2224 89.9023 76.8865 89.9023 76.7185 90.2457C76.2146 90.5891 76.5506 90.7608 79.2381 92.8213C79.742 93.3364 80.4139 92.993 80.4139 92.1344C80.4139 90.9325 80.4139 90.074 80.4139 87.3267C81.5897 88.3569 82.0936 88.8721 82.9334 88.5286C83.4374 88.3569 83.2694 88.0135 83.2694 84.5794ZM60.2574 43.1987C62.609 44.4006 64.6246 45.2591 65.9684 47.663C66.4723 48.5215 68.8239 47.4913 62.609 43.1987C65.9684 43.5421 65.4645 43.8855 66.1364 43.7138C66.6403 43.5421 66.4723 42.6835 66.1364 42.6835C64.7926 42.6835 65.4645 42.1684 60.4254 42.3401C59.9214 42.3401 59.5855 42.8552 60.2574 43.1987ZM61.0972 52.8141C61.7691 53.5009 62.7769 52.299 60.5933 51.4405C58.5777 50.582 57.4019 50.2385 59.0816 50.4102C59.7535 50.582 60.9293 50.9254 61.0972 50.2385C61.0972 49.8951 60.7613 49.7234 60.5933 49.7234C59.4175 49.5517 58.4097 49.38 57.4019 49.38C55.7222 49.5517 55.0503 49.2083 54.8823 49.7234C54.3784 50.9254 59.2496 51.2688 61.0972 52.8141ZM68.32 39.2495C68.8239 40.108 69.9997 41.6533 70.5036 40.9665C70.8395 40.4514 70.3356 40.2797 69.8317 39.5929C69.1598 39.0777 68.9919 38.2192 68.488 37.3607C70.8395 38.5626 71.8474 39.7646 72.1833 38.906C72.3513 38.2192 71.8474 38.2192 68.9919 36.5022C68.488 36.1588 67.4801 35.8154 67.1442 36.3305C66.8082 36.6739 67.1442 36.6739 68.32 39.2495Z" fill="black"/>
</svg>
